<?xml version="1.0" encoding="utf-8"?>
<!-- Generator: Adobe Illustrator 16.0.3, SVG Export Plug-In . SVG Version: 6.00 Build 0)  -->
<!DOCTYPE svg PUBLIC "-//W3C//DTD SVG 1.1 Tiny//EN" "http://www.w3.org/Graphics/SVG/1.1/DTD/svg11-tiny.dtd">
<svg version="1.1" baseProfile="tiny" id="Layer_1" xmlns="http://www.w3.org/2000/svg" xmlns:xlink="http://www.w3.org/1999/xlink"
	 x="0px" y="0px" width="542.039px" height="542.039px" viewBox="0 0 542.039 542.039" xml:space="preserve">
<g>
	<g>
		<g>
			<path fill="#FFFFFF" d="M147.037,298.495c-2.762,6.121-4.084,8.854-7.639,14.264c-4.963,7.555-11.955,16.961-20.619,17.039
				c-7.701,0.072-9.678-5.012-20.127-4.953c-10.448,0.057-12.631,5.043-20.332,4.973c-8.665-0.08-15.291-8.574-20.254-16.127
				c-13.875-21.121-15.324-45.908-6.768-59.086c6.082-9.365,15.672-14.846,24.693-14.846c9.185,0,14.958,5.037,22.551,5.037
				c7.365,0,11.855-5.045,22.473-5.045c8.025,0,16.529,4.369,22.59,11.928C123.752,262.558,126.977,290.915,147.037,298.495z"/>
			<g>
				<path fill="#FFFFFF" d="M112.961,231.313c3.855-4.951,6.787-11.945,5.725-19.092c-6.301,0.434-13.674,4.443-17.979,9.67
					c-3.906,4.746-7.131,11.783-5.875,18.623C101.711,240.728,108.828,236.618,112.961,231.313z"/>
			</g>
		</g>
		<g>
			<g>
				<path fill="#FFFFFF" d="M189.307,254.286l-19.875,58.504h9.102l5.934-17.965h19.244l6.102,17.965h9.354l-19.961-58.504H189.307z
					 M194.022,263.905c0.671,2.611,1.396,5.322,2.326,8.254l5.356,15.512h-15.244l5.281-15.613
					C192.547,269.526,193.311,266.792,194.022,263.905z"/>
				<path fill="#FFFFFF" d="M244.885,269.452c-6.029,0-10.857,2.326-14.072,6.75l-0.353-5.818h-8.097l0.049,0.744
					c0.238,3.625,0.338,7.615,0.338,13.344v45.094h8.852v-21.045c2.746,3.287,7.131,5.199,12.1,5.199
					c5.174,0,9.939-2.025,13.412-5.701c3.878-4.098,5.923-9.988,5.923-17.025c0-6.219-1.776-11.596-5.143-15.547
					C254.597,271.581,249.979,269.452,244.885,269.452z M242.68,276.78c7.891,0,11.422,7.309,11.422,14.553
					c0,9.342-4.506,15.145-11.758,15.145c-4.951,0-9.234-3.369-10.428-8.213c-0.205-0.75-0.314-1.744-0.314-2.865v-7.119
					c0-0.645,0.145-1.426,0.281-2.184c0.044-0.242,0.092-0.484,0.127-0.719C233.33,280.313,237.712,276.78,242.68,276.78z"/>
				<path fill="#FFFFFF" d="M290.465,269.452c-6.027,0-10.855,2.326-14.073,6.75l-0.353-5.818h-8.094l0.045,0.744
					c0.24,3.629,0.342,7.615,0.342,13.344v45.094h8.852v-21.045c2.746,3.287,7.128,5.199,12.096,5.199
					c5.174,0,9.94-2.025,13.419-5.701c3.871-4.098,5.919-9.988,5.919-17.025c0-6.219-1.779-11.596-5.146-15.547
					C300.177,271.581,295.559,269.452,290.465,269.452z M288.262,276.78c7.887,0,11.419,7.309,11.419,14.553
					c0,9.342-4.509,15.145-11.757,15.145c-4.949,0-9.236-3.369-10.428-8.213c-0.205-0.75-0.313-1.744-0.313-2.865v-7.119
					c0-0.648,0.143-1.434,0.282-2.191c0.044-0.238,0.088-0.477,0.128-0.711C278.909,280.313,283.293,276.78,288.262,276.78z"/>
				<path fill="#FFFFFF" d="M347.567,279.075c-8.261-3.199-10.907-5.715-10.907-10.363c0-3.914,3.109-7.861,10.061-7.861
					c5.734,0,9.402,1.994,10.391,2.607l0.75,0.463l2.498-7.387l-0.494-0.289c-1.482-0.869-5.709-2.891-12.89-2.891
					c-11.288,0-19.172,6.664-19.172,16.201c0,7.693,4.937,13.07,15.536,16.924c7.512,2.807,10.308,5.684,10.308,10.613
					c0,5.582-4.313,9.045-11.251,9.045c-4.519,0-9.169-1.318-12.758-3.617l-0.768-0.492l-2.376,7.557l0.437,0.289
					c3.342,2.232,9.631,3.846,14.959,3.846c15.213,0,20.607-9.275,20.607-17.219C362.498,288.312,358.174,283.261,347.567,279.075z"
					/>
				<path fill="#FFFFFF" d="M378.432,260.304l-8.682,2.727v7.354h-6.355v7.074h6.355v21.67c0,5.238,1.002,8.91,3.064,11.23
					c1.979,2.168,5.02,3.361,8.564,3.361c3.346,0,5.723-0.66,6.842-1.057l0.496-0.176l-0.424-7.086l-0.85,0.26
					c-1.119,0.344-2.268,0.477-4.117,0.477c-3.43,0-4.895-2.17-4.895-7.266v-21.414h10.678v-7.074h-10.678V260.304z"/>
				<path fill="#FFFFFF" d="M411.045,269.452c-12.385,0-21.033,9.244-21.033,22.473c0,12.834,8.369,21.795,20.355,21.795h0.082
					c10.133,0,21.033-7.059,21.033-22.557c0-6.303-1.949-11.715-5.641-15.656C422.129,271.548,417.01,269.452,411.045,269.452z
					 M410.789,276.44c7.963,0,11.588,7.762,11.588,14.979c0,8.873-4.947,15.313-11.756,15.313h-0.086
					c-6.713,0-11.586-6.332-11.586-15.057C398.949,284.093,402.611,276.44,410.789,276.44z"/>
				<path fill="#FFFFFF" d="M458.594,269.862l-0.531-0.135c-0.779-0.193-1.416-0.275-2.201-0.275c-4.631,0-8.785,2.727-11.098,7.125
					l-0.26-6.193h-7.943l0.051,0.744c0.236,3.504,0.334,7.438,0.334,12.746l-0.082,28.916h8.852v-22.559
					c0-1.229,0.084-2.391,0.244-3.432c0.998-5.418,4.654-8.92,9.313-8.92c0.906,0,1.619,0.074,2.375,0.148l0.947,0.098V269.862z"/>
				<path fill="#FFFFFF" d="M478.494,269.368c-11.783,0-20.014,9.414-20.014,22.896c0,12.98,8.188,21.371,20.861,21.371
					c6.664,0,11.301-1.463,14.014-2.688l0.533-0.24l-1.701-6.596l-0.738,0.297c-2.412,0.982-5.619,1.984-11.09,1.984
					c-3.846,0-12.715-1.27-13.258-12.834l28.57,0.086l0.115-0.566c0.18-0.898,0.266-2.111,0.266-3.693
					C496.053,280.151,491.455,269.368,478.494,269.368z M477.904,276.103c2.695,0,4.883,0.834,6.498,2.479
					c2.547,2.592,2.992,6.408,3.049,8.24h-20.188C468.086,281.71,471.283,276.103,477.904,276.103z"/>
			</g>
			<g>
				<path fill="#FFFFFF" d="M169.432,214.321c2.466-0.328,5.342-0.574,8.49-0.574c5.707,0,9.77,1.15,12.463,3.41
					c2.784,2.258,4.383,5.504,4.383,9.982c0,4.518-1.599,8.215-4.428,10.762c-2.922,2.588-7.67,3.986-13.649,3.986
					c-2.876,0-5.204-0.082-7.259-0.33V214.321z M173.449,238.847c1.004,0.164,2.465,0.164,4.018,0.164
					c8.49,0.041,13.1-4.271,13.1-11.748c0.046-6.615-4.063-10.682-12.461-10.682c-2.053,0-3.606,0.166-4.656,0.369V238.847z"/>
				<path fill="#FFFFFF" d="M209.004,242.093c-5.936,0-10.59-3.943-10.59-10.229c0-6.656,4.884-10.559,10.954-10.559
					c6.347,0,10.636,4.148,10.636,10.188c0,7.395-5.705,10.6-10.953,10.6H209.004z M209.141,239.38c3.834,0,6.711-3.244,6.711-7.764
					c0-3.369-1.872-7.6-6.619-7.6c-4.703,0-6.757,3.943-6.757,7.723c0,4.355,2.739,7.641,6.619,7.641H209.141z"/>
				<path fill="#FFFFFF" d="M226.359,221.757l2.967,10.066c0.593,2.217,1.188,4.313,1.598,6.367h0.137
					c0.502-2.014,1.232-4.15,1.963-6.326l3.606-10.107h3.379l3.424,9.941c0.82,2.342,1.46,4.479,1.962,6.492h0.137
					c0.365-2.014,0.96-4.109,1.689-6.451l3.148-9.982h3.973l-7.121,19.883h-3.652l-3.377-9.488c-0.775-2.26-1.416-4.232-1.965-6.574
					h-0.09c-0.548,2.383-1.232,4.479-2.01,6.615l-3.56,9.447h-3.651l-6.666-19.883H226.359z"/>
				<path fill="#FFFFFF" d="M258.361,227.14c0-2.096-0.046-3.738-0.184-5.383h3.562l0.228,3.246h0.092
					c1.096-1.85,3.651-3.697,7.303-3.697c3.059,0,7.806,1.643,7.806,8.463v11.871h-4.015v-11.461c0-3.205-1.326-5.914-5.114-5.914
					c-2.602,0-4.657,1.684-5.386,3.695c-0.183,0.453-0.274,1.109-0.274,1.686v11.994h-4.017V227.14z"/>
				<path fill="#FFFFFF" d="M283.695,212.474h4.018v29.166h-4.018V212.474z"/>
				<path fill="#FFFFFF" d="M303.371,242.093c-5.934,0-10.59-3.943-10.59-10.229c0-6.656,4.882-10.559,10.955-10.559
					c6.344,0,10.635,4.148,10.635,10.188c0,7.395-5.706,10.6-10.955,10.6H303.371z M303.506,239.38c3.835,0,6.712-3.244,6.712-7.764
					c0-3.369-1.872-7.6-6.618-7.6c-4.703,0-6.758,3.943-6.758,7.723c0,4.355,2.739,7.641,6.62,7.641H303.506z"/>
				<path fill="#FFFFFF" d="M335.006,236.876c0,1.725,0.092,3.408,0.32,4.764h-3.607l-0.365-2.504h-0.135
					c-1.188,1.561-3.608,2.957-6.756,2.957c-4.473,0-6.756-2.834-6.756-5.711c0-4.807,4.746-7.436,13.281-7.395v-0.41
					c0-1.643-0.5-4.643-5.02-4.602c-2.102,0-4.245,0.533-5.797,1.479l-0.914-2.424c1.826-1.025,4.519-1.725,7.305-1.725
					c6.801,0,8.443,4.148,8.443,8.135V236.876z M331.082,231.493c-4.383-0.082-9.358,0.617-9.358,4.479
					c0,2.383,1.734,3.451,3.743,3.451c2.921,0,4.793-1.645,5.431-3.328c0.14-0.369,0.185-0.781,0.185-1.15V231.493z"/>
				<path fill="#FFFFFF" d="M360.523,212.474v24.031c0,1.766,0.049,3.779,0.184,5.135h-3.605l-0.182-3.449h-0.092
					c-1.232,2.217-3.881,3.902-7.486,3.902c-5.342,0-9.496-4.066-9.496-10.107c-0.046-6.654,4.566-10.68,9.905-10.68
					c3.426,0,5.708,1.439,6.667,2.998h0.09v-11.83H360.523z M356.508,229.851c0-0.494-0.045-1.068-0.184-1.561
					c-0.592-2.26-2.783-4.15-5.796-4.15c-4.154,0-6.62,3.287-6.62,7.643c0,4.066,2.238,7.393,6.528,7.393
					c2.694,0,5.159-1.643,5.888-4.313c0.139-0.492,0.184-0.986,0.184-1.561V229.851z"/>
				<path fill="#FFFFFF" d="M385.859,242.093c-5.934,0-10.59-3.943-10.59-10.229c0-6.656,4.887-10.559,10.955-10.559
					c6.348,0,10.637,4.148,10.637,10.188c0,7.395-5.707,10.6-10.953,10.6H385.859z M385.998,239.38c3.834,0,6.709-3.244,6.709-7.764
					c0-3.369-1.869-7.6-6.617-7.6c-4.703,0-6.756,3.943-6.756,7.723c0,4.355,2.738,7.641,6.617,7.641H385.998z"/>
				<path fill="#FFFFFF" d="M401.932,227.14c0-2.096-0.047-3.738-0.184-5.383h3.561l0.23,3.246h0.09
					c1.096-1.85,3.65-3.697,7.303-3.697c3.059,0,7.807,1.643,7.807,8.463v11.871h-4.018v-11.461c0-3.205-1.322-5.914-5.113-5.914
					c-2.6,0-4.656,1.684-5.387,3.695c-0.182,0.453-0.273,1.109-0.273,1.686v11.994h-4.016V227.14z"/>
				<path fill="#FFFFFF" d="M441.783,216.993v4.764h5.75v2.752h-5.75v10.723c0,2.465,0.777,3.861,3.014,3.861
					c1.094,0,1.734-0.082,2.328-0.246l0.182,2.752c-0.775,0.246-2.008,0.494-3.561,0.494c-1.871,0-3.379-0.576-4.338-1.52
					c-1.096-1.109-1.551-2.877-1.551-5.219v-10.846h-3.424v-2.752h3.424v-3.656L441.783,216.993z"/>
				<path fill="#FFFFFF" d="M452.055,212.474h4.016v12.406h0.094c0.637-1.027,1.641-1.973,2.877-2.547
					c1.186-0.656,2.598-1.027,4.107-1.027c2.965,0,7.713,1.643,7.713,8.504v11.83h-4.016v-11.42c0-3.246-1.324-5.916-5.113-5.916
					c-2.602,0-4.609,1.645-5.387,3.615c-0.229,0.494-0.275,1.027-0.275,1.727v11.994h-4.016V212.474z"/>
				<path fill="#FFFFFF" d="M479.672,232.315c0.094,4.889,3.518,6.902,7.533,6.902c2.875,0,4.656-0.453,6.119-0.988l0.73,2.547
					c-1.418,0.576-3.883,1.275-7.396,1.275c-6.758,0-10.865-4.068-10.865-10.023c0-6.039,3.973-10.764,10.406-10.764
					c7.215,0,9.084,5.709,9.084,9.367c0,0.738-0.043,1.314-0.135,1.725L479.672,232.315z M491.406,229.728
					c0.043-2.26-1.051-5.875-5.525-5.875c-4.109,0-5.844,3.369-6.162,5.875H491.406z"/>
			</g>
		</g>
	</g>
	<path fill="#FFFFFF" d="M271.02,542.039c-72.393,0-140.451-28.19-191.64-79.38C28.19,411.471,0,343.412,0,271.02
		S28.19,130.568,79.38,79.38C130.568,28.19,198.627,0,271.02,0s140.451,28.19,191.64,79.38
		c51.189,51.188,79.38,119.247,79.38,191.64s-28.19,140.451-79.38,191.64C411.471,513.849,343.412,542.039,271.02,542.039z
		 M271.02,4C123.784,4,4,123.784,4,271.02s119.784,267.02,267.02,267.02s267.02-119.784,267.02-267.02S418.255,4,271.02,4z"/>
</g>
</svg>
