<?xml version="1.0" encoding="utf-8"?>
<!-- Generator: Adobe Illustrator 16.0.3, SVG Export Plug-In . SVG Version: 6.00 Build 0)  -->
<!DOCTYPE svg PUBLIC "-//W3C//DTD SVG 1.1 Tiny//EN" "http://www.w3.org/Graphics/SVG/1.1/DTD/svg11-tiny.dtd">
<svg version="1.1" baseProfile="tiny" id="Layer_1" xmlns="http://www.w3.org/2000/svg" xmlns:xlink="http://www.w3.org/1999/xlink"
	 x="0px" y="0px" width="135px" height="247.106px" viewBox="0 0 135 247.106" overflow="scroll" xml:space="preserve">
<g>
	<path fill="none" d="M88.711,185.505h0.249c8.705,0,16.664-4.809,20.893-12.104c-7.213,1.905-15.67,1.159-20.644-5.971
		c-0.581-0.58-1.078-1.325-1.576-2.072c-1.741-2.57-3.316-4.975-8.042-4.726c-1.575,0-3.067,0.331-4.477,1.078
		c-3.399,1.741-5.14,4.559-5.14,8.373C71.798,179.038,79.591,185.505,88.711,185.505z"/>
	<path fill="none" d="M43.36,192.138h-0.248c-7.296,0-14.095-2.652-19.484-7.047c2.239,8.042,6.467,15.503,12.354,21.225h0.083
		l30.012,31.422l30.013-31.339c5.969-5.722,10.198-13.183,12.27-21.308c-5.389,4.395-12.187,7.047-19.483,7.047h-0.249
		c-9.617,0-18.157-5.306-22.634-13.431C61.518,186.749,52.979,192.138,43.36,192.138z"/>
	<path fill="none" d="M43.195,185.505h0.248c9.12,0,16.914-6.467,18.738-15.421c0-3.814-1.741-6.632-5.141-8.373
		c-1.409-0.747-2.901-1.078-4.477-1.078c-4.726-0.249-6.301,2.155-8.042,4.726c-0.497,0.747-0.995,1.492-1.575,2.072
		c-4.975,7.13-13.431,7.876-20.644,5.971C26.53,180.696,34.489,185.505,43.195,185.505z"/>
	<path fill="#020202" d="M22.634,128.713v3.233c0,7.296,5.886,13.266,13.182,13.266h11.608c7.295,0,13.182-5.97,13.182-13.266
		V112.38H22.634v6.467h31.505v13.099c0,3.73-3.068,6.799-6.798,6.799H35.733c-3.73,0-6.798-3.068-6.798-6.799v-3.233H22.634z"/>
	<path fill="#020202" d="M84.897,145.212h11.608c7.295,0,13.182-5.97,13.182-13.266V112.38H71.715v6.467h31.505v13.099
		c0,3.73-3.068,6.799-6.798,6.799H84.814c-3.73,0-6.798-3.068-6.798-6.799v-3.233h-6.301v3.233
		C71.715,139.242,77.602,145.212,84.897,145.212z"/>
	<path fill="#020202" d="M90.453,88.171c6.798,0,12.353,5.638,12.353,12.519h6.384c0-10.446-8.456-18.986-18.82-18.986
		c-10.363,0-18.82,8.54-18.82,18.986h6.384C78.1,93.726,83.655,88.171,90.453,88.171z"/>
	<path fill="#020202" d="M96.753,34.53H81.167c-17.908,0-32.665,13.929-34.241,31.588c-17.493,1.575-31.339,16.416-31.339,34.49
		h6.384c0.083-15.504,12.602-28.189,28.023-28.189h3.233v-3.233c0-7.545,2.902-14.592,8.208-19.898s12.271-8.291,19.732-8.291
		h15.587c10.364,0,18.82-8.457,18.82-18.986c0-10.529-8.456-18.986-18.82-18.986v6.467c6.799,0,12.353,5.638,12.353,12.519
		S103.553,34.53,96.753,34.53z"/>
	<path fill="#020202" d="M116.568,172.571C116.568,172.654,116.651,172.654,116.568,172.571L116.568,172.571z"/>
	<path fill="#020202" d="M15.255,167.431v0.332v4.809v0.083v0.747v1.657v0.083c0.663,13.929,6.301,26.447,15.918,35.816
		l34.407,36.148l34.407-36.314c10.114-9.368,15.669-21.805,16.25-35.65v-0.083v-1.657c0.331-0.249,0.331-0.498,0.331-0.83v-5.141
		v-4.974l-2.57,1.658c-2.736,1.824-14.177,7.047-19.483-0.829l-0.415-0.498c-0.249-0.248-0.58-0.829-0.995-1.326
		c-1.907-2.819-5.472-8.208-13.845-7.628c-2.405,0-4.975,0.581-7.296,1.741c-2.487,1.244-4.56,3.067-6.053,5.141
		c-1.492-2.156-3.482-3.896-6.052-5.141c-2.321-1.16-4.809-1.741-7.296-1.741c-8.291-0.497-11.856,4.809-13.845,7.628
		c-0.332,0.497-0.747,1.16-0.995,1.326l-0.415,0.498c-5.306,7.793-16.664,2.653-19.483,0.829l-2.57-1.658V167.431z M75.114,161.711
		c1.41-0.747,2.902-1.078,4.477-1.078c4.726-0.249,6.301,2.155,8.042,4.726c0.498,0.747,0.995,1.492,1.576,2.072
		c4.974,7.13,13.431,7.876,20.644,5.971c-4.229,7.295-12.188,12.104-20.893,12.104h-0.249c-9.12,0-16.913-6.467-18.737-15.421
		C69.975,166.27,71.715,163.452,75.114,161.711z M65.995,178.707c4.477,8.125,13.017,13.431,22.634,13.431h0.249
		c7.296,0,14.094-2.652,19.483-7.047c-2.072,8.125-6.301,15.586-12.27,21.308l-30.013,31.339l-30.012-31.422h-0.083
		c-5.887-5.722-10.115-13.183-12.354-21.225c5.389,4.395,12.188,7.047,19.484,7.047h0.248
		C52.979,192.138,61.518,186.749,65.995,178.707z M42.946,167.431c0.58-0.58,1.078-1.325,1.575-2.072
		c1.741-2.57,3.316-4.975,8.042-4.726c1.576,0,3.068,0.331,4.477,1.078c3.4,1.741,5.141,4.559,5.141,8.373
		c-1.824,8.954-9.618,15.421-18.738,15.421h-0.248c-8.706,0-16.665-4.809-20.893-12.104
		C29.516,175.307,37.972,174.561,42.946,167.431z"/>
</g>
</svg>
