<?xml version="1.0" encoding="utf-8"?>
<!-- Generator: Adobe Illustrator 16.0.3, SVG Export Plug-In . SVG Version: 6.00 Build 0)  -->
<!DOCTYPE svg PUBLIC "-//W3C//DTD SVG 1.1 Tiny//EN" "http://www.w3.org/Graphics/SVG/1.1/DTD/svg11-tiny.dtd">
<svg version="1.1" baseProfile="tiny" id="Layer_1" xmlns="http://www.w3.org/2000/svg" xmlns:xlink="http://www.w3.org/1999/xlink"
	 x="0px" y="0px" width="542.04px" height="542.04px" viewBox="0 0 542.04 542.04" xml:space="preserve">
<g>
	<g>
		<g>
			<path fill="#F9F9F9" d="M405.151,293.068c-2.145,0-4.104-0.395-5.877-1.186c-1.773-0.793-3.262-2.01-4.465-3.652h-0.361
				c0.24,1.924,0.361,3.748,0.361,5.471v13.559h-4.988v-47.742h4.057l0.691,4.51h0.24c1.283-1.805,2.777-3.107,4.48-3.908
				c1.703-0.803,3.658-1.203,5.861-1.203c4.371,0,7.744,1.494,10.117,4.48c2.375,2.986,3.564,7.176,3.564,12.566
				c0,5.412-1.209,9.615-3.621,12.613C412.794,291.572,409.442,293.068,405.151,293.068z M404.431,263.154
				c-3.367,0-5.803,0.934-7.305,2.797c-1.504,1.863-2.275,4.83-2.316,8.9v1.111c0,4.631,0.771,7.943,2.316,9.938
				c1.543,1.994,4.02,2.99,7.424,2.99c2.848,0,5.078-1.152,6.693-3.457c1.611-2.303,2.418-5.48,2.418-9.531
				c0-4.107-0.807-7.262-2.418-9.455C409.628,264.252,407.356,263.154,404.431,263.154z"/>
			<path fill="#F9F9F9" d="M430.388,292.467h-4.99v-46.779h4.99V292.467z"/>
			<path fill="#F9F9F9" d="M459.079,292.467l-0.992-4.689h-0.24c-1.645,2.066-3.283,3.465-4.916,4.193
				c-1.633,0.734-3.674,1.098-6.117,1.098c-3.268,0-5.828-0.842-7.682-2.525c-1.855-1.684-2.781-4.076-2.781-7.184
				c0-6.654,5.322-10.141,15.963-10.463l5.594-0.182v-2.043c0-2.586-0.557-4.496-1.67-5.727c-1.111-1.234-2.893-1.85-5.336-1.85
				c-2.746,0-5.854,0.842-9.32,2.525l-1.533-3.818c1.625-0.883,3.402-1.574,5.338-2.074c1.934-0.502,3.871-0.752,5.816-0.752
				c3.928,0,6.84,0.871,8.734,2.615c1.893,1.744,2.84,4.539,2.84,8.389v22.486H459.079z M447.806,288.951
				c3.105,0,5.545-0.852,7.32-2.555c1.773-1.703,2.662-4.09,2.662-7.158v-2.975l-4.994,0.209c-3.967,0.143-6.826,0.756-8.582,1.852
				c-1.754,1.092-2.631,2.791-2.631,5.096c0,1.803,0.545,3.176,1.639,4.117C444.313,288.48,445.839,288.951,447.806,288.951z"/>
			<path fill="#F9F9F9" d="M465.675,259.518h5.35l7.215,18.791c1.584,4.289,2.566,7.385,2.949,9.291h0.24
				c0.26-1.025,0.807-2.771,1.637-5.25c0.832-2.475,3.555-10.084,8.162-22.832h5.354l-14.162,37.52
				c-1.402,3.709-3.041,6.34-4.916,7.895c-1.873,1.553-4.174,2.328-6.898,2.328c-1.523,0-3.027-0.17-4.512-0.51v-3.998
				c1.102,0.24,2.336,0.361,3.699,0.361c3.428,0,5.871-1.924,7.336-5.773l1.834-4.689L465.675,259.518z"/>
		</g>
		<g>
			<path fill="#F9F9F9" d="M312.702,262.578c1.584,1.311,4.893,4.066,4.893,9.307c0,5.096-2.895,7.514-5.791,9.785
				c-0.896,0.895-1.93,1.863-1.93,3.381c0,1.512,1.033,2.34,1.795,2.961l2.482,1.926c3.031,2.551,5.785,4.896,5.785,9.654
				c0,6.477-6.271,13.023-18.123,13.023c-9.996,0-14.818-4.754-14.818-9.857c0-2.48,1.236-5.994,5.307-8.408
				c4.27-2.619,10.064-2.961,13.164-3.172c-0.969-1.24-2.068-2.549-2.068-4.682c0-1.17,0.346-1.861,0.689-2.691
				c-0.762,0.07-1.518,0.139-2.209,0.139c-7.303,0-11.438-5.445-11.438-10.818c0-3.172,1.449-6.688,4.408-9.236
				c3.93-3.238,8.617-3.791,12.342-3.791h14.193l-4.41,2.48H312.702z M307.808,293.182c-0.551-0.072-0.896-0.072-1.582-0.072
				c-0.621,0-4.348,0.141-7.238,1.107c-1.516,0.547-5.928,2.201-5.928,7.098c0,4.891,4.758,8.41,12.133,8.41
				c6.611,0,10.131-3.176,10.131-7.445C315.323,298.758,313.048,296.904,307.808,293.182z M309.808,280.084
				c1.584-1.586,1.719-3.789,1.719-5.031c0-4.961-2.961-12.68-8.68-12.68c-1.795,0-3.723,0.895-4.826,2.275
				c-1.17,1.447-1.518,3.305-1.518,5.1c0,4.617,2.689,12.268,8.619,12.268C306.845,282.016,308.7,281.188,309.808,280.084z"/>
			<path fill="#F9F9F9" d="M269.314,292.078c-10.939,0-16.788-8.533-16.788-16.242c0-9.014,7.361-16.717,17.824-16.717
				c10.11,0,16.442,7.91,16.442,16.238C286.792,283.473,280.532,292.078,269.314,292.078z M277.913,286.506
				c1.654-2.205,2.068-4.955,2.068-7.641c0-6.057-2.891-17.615-11.423-17.615c-2.27,0-4.54,0.896-6.191,2.344
				c-2.684,2.404-3.168,5.434-3.168,8.396c0,6.807,3.372,18.02,11.7,18.02C273.581,290.01,276.335,288.705,277.913,286.506z"/>
			<path fill="#F9F9F9" d="M232.019,292.078c-10.941,0-16.79-8.533-16.79-16.242c0-9.014,7.363-16.717,17.823-16.717
				c10.113,0,16.443,7.91,16.443,16.238C249.496,283.473,243.236,292.078,232.019,292.078z M240.621,286.506
				c1.651-2.205,2.065-4.955,2.065-7.641c0-6.057-2.892-17.615-11.425-17.615c-2.269,0-4.541,0.896-6.191,2.344
				c-2.684,2.404-3.165,5.434-3.165,8.396c0,6.807,3.369,18.02,11.699,18.02C236.288,290.01,239.039,288.705,240.621,286.506z"/>
			<path fill="#F9F9F9" d="M209.972,291l-9.894,2.283c-4.014,0.623-7.61,1.172-11.413,1.172c-19.096,0-26.356-14.043-26.356-25.043
				c0-13.42,10.305-25.869,27.949-25.869c3.736,0,7.33,0.553,10.582,1.453c5.188,1.453,7.609,3.25,9.132,4.289l-5.743,5.465
				l-2.42,0.551l1.729-2.768c-2.351-2.281-6.643-6.5-14.803-6.5c-10.932,0-19.165,8.305-19.165,20.41
				c0,13.002,9.409,25.246,24.487,25.246c4.433,0,6.711-0.898,8.787-1.73v-11.135l-10.443,0.553l5.531-2.979h14.667l-1.797,1.729
				c-0.487,0.418-0.555,0.557-0.693,1.105c-0.071,0.625-0.137,2.633-0.137,3.324V291z"/>
			<path fill="#F9F9F9" d="M334.567,289.008c-2.283-0.209-2.762-0.621-2.762-3.322v-0.762v-38.393
				c0.014-0.15,0.023-0.303,0.037-0.447c0.279-2.42,0.971-2.834,3.117-4.082h-9.896l-5.189,2.492h5.289v0.031l-0.004-0.025v40.424
				v2.285c0,1.381-0.273,1.59-1.867,3.664h12.246l2.561-1.518C336.923,289.213,335.745,289.145,334.567,289.008z"/>
			<path fill="#F9F9F9" d="M362.718,289.643c-0.754,0.414-1.51,0.896-2.262,1.238c-2.271,1.029-4.607,1.305-6.672,1.305
				c-2.193,0-5.631-0.141-9.137-2.68c-4.875-3.438-7.004-9.346-7.004-14.498c0-10.646,8.656-15.867,15.732-15.867
				c2.473,0,5.018,0.617,7.08,1.924c3.432,2.264,4.324,5.217,4.803,6.799l-16.141,6.529l-5.291,0.412
				c1.715,8.725,7.623,13.805,14.152,13.805c3.502,0,6.045-1.234,8.381-2.4L362.718,289.643z M356.263,269.168
				c1.303-0.48,1.99-0.893,1.99-1.854c0-2.746-3.09-5.908-6.803-5.908c-2.752,0-7.9,2.131-7.9,9.549
				c0,1.168,0.137,2.404,0.209,3.645L356.263,269.168z"/>
			<g>
				<path fill="#F9F9F9" d="M369.349,259.609v4.533h-0.551v-4.533h-1.5v-0.469h3.551v0.469H369.349z"/>
				<path fill="#F9F9F9" d="M375.528,264.143v-4.574h-0.025l-1.396,4.574h-0.43l-1.408-4.574h-0.018v4.574h-0.5v-5.002h0.857
					l1.273,4.043h0.018l1.256-4.043h0.869v5.002H375.528z"/>
			</g>
		</g>
		<g>
			<path fill="#F9F9FA" d="M176.047,230.072h-3.438c0-0.473-0.326-1.811-0.977-4.018h-4.963c-0.674,2.17-1.01,3.51-1.01,4.018
				h-3.234c0-0.279,0.836-2.57,2.509-6.875c1.672-4.303,2.509-6.674,2.509-7.111h4.061c0,0.408,0.757,2.744,2.271,7.01
				C175.291,227.359,176.047,229.686,176.047,230.072z M171.084,224.004c-1.225-3.695-1.836-5.693-1.836-5.994h-0.172
				c0,0.279-0.635,2.277-1.902,5.994H171.084z"/>
			<path fill="#F9F9FA" d="M189.899,230.072h-2.652c0-0.293-0.985-1.844-2.955-4.65c-2.063-2.959-3.236-4.98-3.523-6.07h-0.172
				c0.18,1.568,0.27,2.986,0.27,4.254c0,1.77,0.049,3.926,0.15,6.467h-2.643c0.107-2.219,0.16-4.658,0.16-7.314
				c0-2.615-0.053-4.838-0.16-6.672h3.189c0,0.381,0.885,1.895,2.654,4.545c1.883,2.814,2.965,4.723,3.244,5.725h0.16
				c-0.172-1.596-0.258-3.029-0.258-4.297c0-1.939-0.05-3.932-0.15-5.973h2.686c-0.1,1.777-0.15,4-0.15,6.672
				C189.749,225.449,189.799,227.889,189.899,230.072z"/>
			<path fill="#F9F9FA" d="M205.469,222.596c0,2.035-0.652,3.811-1.955,5.328c-1.304,1.52-3.13,2.277-5.479,2.277
				c-1.061,0-2.521-0.043-4.383-0.129c0.093-2.162,0.14-4.602,0.14-7.314c0-2.607-0.047-4.83-0.14-6.672h1.88
				c0.308,0,0.767-0.01,1.375-0.031s1.006-0.033,1.192-0.033c2.585,0,4.459,0.645,5.623,1.934S205.469,220.791,205.469,222.596z
				 M202.537,223.059c0-1.375-0.401-2.533-1.203-3.477c-0.802-0.941-2.026-1.412-3.674-1.412c-0.308,0-0.73,0.033-1.268,0.098
				c0.071,1.432,0.107,2.928,0.107,4.49c0,1.711,0.036,3.408,0.107,5.092c0.466,0.092,0.931,0.139,1.396,0.139
				c1.54,0,2.681-0.479,3.421-1.434C202.167,225.598,202.537,224.434,202.537,223.059z"/>
			<path fill="#F9F9FA" d="M219.826,230.072h-3.18c-0.831-2.535-1.468-4.1-1.912-4.693c-0.444-0.596-1.16-0.893-2.148-0.893
				c-0.415,0-0.813,0.004-1.192,0.012c0,1.84,0.032,3.699,0.097,5.574h-2.986c0.093-2.162,0.14-4.602,0.14-7.314
				c0-2.607-0.047-4.83-0.14-6.672h1.858c0.215,0,0.664-0.01,1.348-0.031s1.316-0.033,1.896-0.033c3.287,0,4.931,1.125,4.931,3.373
				c0,1.783-0.938,3.025-2.814,3.729v0.16c0.724,0.201,1.356,0.766,1.901,1.691C218.167,225.902,218.902,227.602,219.826,230.072z
				 M215.797,220.189c0-1.424-0.917-2.137-2.75-2.137c-0.674,0-1.268,0.049-1.783,0.15c0.078,1.109,0.118,2.557,0.118,4.34
				c0.394,0.014,0.727,0.021,0.999,0.021C214.659,222.564,215.797,221.773,215.797,220.189z"/>
			<path fill="#F9F9FA" d="M235.224,222.822c0,2.197-0.673,4.021-2.02,5.467c-1.347,1.447-3.012,2.17-4.995,2.17
				c-1.891,0-3.474-0.664-4.748-1.992c-1.275-1.328-1.912-3.018-1.912-5.064c0-2.199,0.673-4.021,2.02-5.469
				c1.346-1.445,3.012-2.17,4.995-2.17c1.891,0,3.474,0.662,4.748,1.988C234.586,219.076,235.224,220.766,235.224,222.822z
				 M232.259,223.133c0-1.496-0.384-2.711-1.149-3.641c-0.767-0.932-1.712-1.396-2.836-1.396c-1.046,0-1.934,0.469-2.664,1.406
				c-0.73,0.939-1.096,2.123-1.096,3.557c0,1.488,0.385,2.701,1.154,3.635c0.77,0.936,1.714,1.402,2.831,1.402
				c1.046,0,1.934-0.471,2.664-1.412S232.259,224.559,232.259,223.133z"/>
			<path fill="#F9F9FA" d="M241.297,230.072h-3.039c0.092-2.219,0.139-4.658,0.139-7.314c0-2.615-0.047-4.838-0.139-6.672h3.039
				c-0.093,1.805-0.139,4.029-0.139,6.672C241.159,225.457,241.205,227.896,241.297,230.072z"/>
			<path fill="#F9F9FA" d="M256.868,222.596c0,2.035-0.651,3.811-1.955,5.328c-1.303,1.52-3.129,2.277-5.479,2.277
				c-1.06,0-2.521-0.043-4.383-0.129c0.094-2.162,0.141-4.602,0.141-7.314c0-2.607-0.047-4.83-0.141-6.672h1.881
				c0.307,0,0.766-0.01,1.375-0.031c0.607-0.021,1.006-0.033,1.191-0.033c2.586,0,4.46,0.645,5.624,1.934
				C256.286,219.244,256.868,220.791,256.868,222.596z M253.936,223.059c0-1.375-0.402-2.533-1.203-3.477
				c-0.803-0.941-2.027-1.412-3.674-1.412c-0.309,0-0.73,0.033-1.268,0.098c0.07,1.432,0.107,2.928,0.107,4.49
				c0,1.711,0.035,3.408,0.107,5.092c0.465,0.092,0.93,0.139,1.396,0.139c1.539,0,2.68-0.479,3.421-1.434
				C253.565,225.598,253.936,224.434,253.936,223.059z"/>
			<path fill="#F9F9FA" d="M277.524,230.072h-3.438c0-0.473-0.326-1.811-0.979-4.018h-4.963c-0.673,2.17-1.01,3.51-1.01,4.018
				h-3.232c0-0.279,0.836-2.57,2.508-6.875c1.672-4.303,2.508-6.674,2.508-7.111h4.061c0,0.408,0.758,2.744,2.271,7.01
				C276.767,227.359,277.524,229.686,277.524,230.072z M272.562,224.004c-1.225-3.695-1.838-5.693-1.838-5.994h-0.172
				c0,0.279-0.633,2.277-1.9,5.994H272.562z"/>
			<path fill="#F9F9FA" d="M290.054,219.75c0,1.711-0.635,2.975-1.906,3.791s-2.83,1.225-4.678,1.225
				c-0.338,0-0.576-0.006-0.721-0.021c0,1.348,0.039,3.123,0.119,5.328h-3.02c0.094-2.068,0.141-4.508,0.141-7.314
				c0-2.578-0.047-4.803-0.141-6.672h1.869c0.266,0,0.773-0.01,1.525-0.031s1.404-0.033,1.955-0.033c1.361,0,2.51,0.309,3.449,0.924
				C289.585,217.563,290.054,218.496,290.054,219.75z M287.282,220.34c0-1.531-1.016-2.299-3.051-2.299
				c-0.508,0-1.045,0.055-1.611,0.162c0.08,1.354,0.119,2.885,0.119,4.598c0.178,0.014,0.387,0.021,0.623,0.021
				C285.976,222.822,287.282,221.994,287.282,220.34z"/>
			<path fill="#F9F9FA" d="M302.938,219.75c0,1.711-0.637,2.975-1.906,3.791c-1.271,0.816-2.832,1.225-4.68,1.225
				c-0.336,0-0.576-0.006-0.719-0.021c0,1.348,0.039,3.123,0.117,5.328h-3.018c0.092-2.068,0.139-4.508,0.139-7.314
				c0-2.578-0.047-4.803-0.139-6.672h1.869c0.264,0,0.773-0.01,1.525-0.031s1.402-0.033,1.955-0.033c1.359,0,2.51,0.309,3.447,0.924
				C302.47,217.563,302.938,218.496,302.938,219.75z M300.167,220.34c0-1.531-1.018-2.299-3.051-2.299
				c-0.51,0-1.047,0.055-1.611,0.162c0.078,1.354,0.117,2.885,0.117,4.598c0.18,0.014,0.387,0.021,0.623,0.021
				C298.86,222.822,300.167,221.994,300.167,220.34z"/>
			<path fill="#F9F9FA" d="M324.003,222.822c0,2.197-0.674,4.021-2.02,5.467c-1.348,1.447-3.012,2.17-4.996,2.17
				c-1.891,0-3.473-0.664-4.748-1.992c-1.273-1.328-1.912-3.018-1.912-5.064c0-2.199,0.674-4.021,2.02-5.469
				c1.348-1.445,3.012-2.17,4.996-2.17c1.891,0,3.473,0.662,4.748,1.988C323.364,219.076,324.003,220.766,324.003,222.822z
				 M321.038,223.133c0-1.496-0.383-2.711-1.15-3.641c-0.766-0.932-1.711-1.396-2.836-1.396c-1.045,0-1.934,0.469-2.664,1.406
				c-0.73,0.939-1.096,2.123-1.096,3.557c0,1.488,0.385,2.701,1.156,3.635c0.77,0.936,1.713,1.402,2.83,1.402
				c1.045,0,1.934-0.471,2.664-1.412S321.038,224.559,321.038,223.133z"/>
			<path fill="#F9F9FA" d="M338.563,230.072h-2.654c0-0.293-0.984-1.844-2.953-4.65c-2.063-2.959-3.238-4.98-3.523-6.07h-0.172
				c0.178,1.568,0.268,2.986,0.268,4.254c0,1.77,0.051,3.926,0.15,6.467h-2.643c0.107-2.219,0.162-4.658,0.162-7.314
				c0-2.615-0.055-4.838-0.162-6.672h3.191c0,0.381,0.885,1.895,2.652,4.545c1.885,2.814,2.965,4.723,3.244,5.725h0.162
				c-0.172-1.596-0.258-3.029-0.258-4.297c0-1.939-0.051-3.932-0.15-5.973h2.686c-0.102,1.777-0.15,4-0.15,6.672
				C338.413,225.449,338.462,227.889,338.563,230.072z"/>
		</g>
	</g>
	<circle fill="none" stroke="#FFFFFF" stroke-width="4" stroke-miterlimit="10" cx="271.02" cy="271.02" r="269.02"/>
</g>
<g>
	<path fill="#FFFFFF" d="M46.634,216.464c-0.717,0.484-1.175,1.373-1.175,2.657c0,4.965,0,51.799,0,51.799s0,50.615,0,52.852
		c0,0.898,0.293,1.578,0.773,2.005l55.321-54.854L46.634,216.464z"/>
	<path fill="#FFFFFF" d="M103.053,269.435l14.229-14.108l-22.406-12.938c0,0-42.016-24.26-44.486-25.686
		c-0.322-0.186-0.643-0.33-0.959-0.439L103.053,269.435z"/>
	<path fill="#FFFFFF" d="M103.053,272.409l-53.851,53.396c0.055-0.028,0.106-0.043,0.162-0.074
		c2.145-1.24,45.512-26.279,45.512-26.279l22.405-12.936L103.053,272.409z"/>
	<path fill="#FFFFFF" d="M104.553,270.922l14.623,14.499c4.337-2.504,18.725-10.81,20.93-12.083
		c2.602-1.502,2.352-3.563,0.156-4.744c-1.866-1.006-16.685-9.611-21.088-12.17L104.553,270.922z"/>
</g>
</svg>
