<?xml version="1.0" encoding="utf-8"?>
<!-- Generator: Adobe Illustrator 16.0.3, SVG Export Plug-In . SVG Version: 6.00 Build 0)  -->
<!DOCTYPE svg PUBLIC "-//W3C//DTD SVG 1.1 Tiny//EN" "http://www.w3.org/Graphics/SVG/1.1/DTD/svg11-tiny.dtd">
<svg version="1.1" baseProfile="tiny" id="Layer_1" xmlns="http://www.w3.org/2000/svg" xmlns:xlink="http://www.w3.org/1999/xlink"
	 x="0px" y="0px" width="199.999px" height="200.001px" viewBox="0 0 199.999 200.001" xml:space="preserve">
<g>
	<circle fill="#FFFFFF" cx="99.999" cy="100" r="99.999"/>
	<g>
		<path fill="#FCB514" d="M71.99,59.02c6.881-5.769,15.916-10.355,28.218-10.355c17.445,0,28.357,9.73,28.357,24.604
			c0,21.337-19.878,23.353-21.546,32.041l-1.946,9.73H90.339l-1.529-11.19c-0.069-0.556-0.139-1.111-0.139-1.668
			c0-12.302,19.878-13.831,19.878-27.662c0-5.561-3.893-9.105-10.287-9.105c-9.8,0-12.58,4.935-16.124,4.935
			c-2.016,0-3.476-0.834-4.448-2.571L71.99,59.02z M97.011,128.246c6.881,0,12.233,5.282,12.233,11.885
			c0,6.742-5.353,11.885-12.233,11.885c-6.95,0-12.232-5.143-12.232-11.885C84.778,133.528,90.061,128.246,97.011,128.246z"/>
	</g>
</g>
</svg>
