<?xml version="1.0" encoding="utf-8"?>
<!-- Generator: Adobe Illustrator 16.0.3, SVG Export Plug-In . SVG Version: 6.00 Build 0)  -->
<!DOCTYPE svg PUBLIC "-//W3C//DTD SVG 1.1 Tiny//EN" "http://www.w3.org/Graphics/SVG/1.1/DTD/svg11-tiny.dtd">
<svg version="1.1" baseProfile="tiny" id="Layer_1" xmlns="http://www.w3.org/2000/svg" xmlns:xlink="http://www.w3.org/1999/xlink"
	 x="0px" y="0px" width="200px" height="199.999px" viewBox="0 0 200 199.999" xml:space="preserve">
<path fill="#FCB514" d="M118.46,1.735C64.19-8.452,11.936,27.268,1.737,81.54c-10.194,54.268,25.538,106.525,79.807,116.724
	c54.266,10.19,106.525-25.53,116.719-79.806C208.458,64.194,172.726,11.936,118.46,1.735z M112.546,72.948
	c1.465-7.799,8.982-12.941,16.789-11.48c7.809,1.469,12.947,8.983,11.482,16.796c-1.467,7.806-8.99,12.95-16.797,11.479
	C116.218,88.27,111.079,80.759,112.546,72.948z M70.202,64.998c1.469-7.811,8.977-12.948,16.785-11.479
	c7.807,1.461,12.949,8.984,11.48,16.782c-1.467,7.813-8.979,12.948-16.791,11.493C73.872,80.319,68.737,72.81,70.202,64.998z
	 M86.231,173.319c-40.48-7.606-67.139-46.604-59.535-87.092l146.615,27.543C165.706,154.255,126.716,180.915,86.231,173.319z"/>
</svg>
