<?xml version="1.0" encoding="utf-8"?>
<!-- Generator: Adobe Illustrator 16.0.3, SVG Export Plug-In . SVG Version: 6.00 Build 0)  -->
<!DOCTYPE svg PUBLIC "-//W3C//DTD SVG 1.1 Tiny//EN" "http://www.w3.org/Graphics/SVG/1.1/DTD/svg11-tiny.dtd">
<svg version="1.1" baseProfile="tiny" id="Layer_1" xmlns="http://www.w3.org/2000/svg" xmlns:xlink="http://www.w3.org/1999/xlink"
	 x="0px" y="0px" width="401.841px" height="100px" viewBox="0 0 401.841 100" xml:space="preserve">
<g>
	<path fill="#FCB514" d="M351.841,100H50C22.385,100,0,77.61,0,50C0,22.384,22.385,0,50,0h301.841c27.615,0,50,22.384,50,50
		C401.841,77.61,379.456,100,351.841,100z"/>
	<g>
		<path fill="#FFFFFF" d="M144.615,42.772c-2.59,0-4.69,1.772-4.69,3.958v28.924c0,2.188,2.1,3.956,4.69,3.956
			c2.592,0,4.692-1.769,4.692-3.956V46.73C149.307,44.545,147.207,42.772,144.615,42.772z"/>
		<path fill="#FFFFFF" d="M182.144,42.772c-2.591,0-4.689,1.772-4.689,3.958v28.924c0,2.188,2.099,3.956,4.689,3.956
			c2.593,0,4.693-1.769,4.693-3.956V46.73C186.836,44.545,184.736,42.772,182.144,42.772z"/>
		<path fill="#FFFFFF" d="M163.379,20.385c-2.591,0-4.69,1.772-4.69,3.957v51.313c0,2.188,2.099,3.956,4.69,3.956
			c2.593,0,4.693-1.769,4.693-3.956V24.342C168.072,22.157,165.972,20.385,163.379,20.385z"/>
		<path fill="#FFFFFF" d="M215.075,42.772c-10.399,0-18.856,8.265-18.856,18.422c0,10.156,8.458,18.416,18.856,18.416
			c4.528,0,8.9-1.58,12.314-4.448c1.672-1.406,1.676-3.689,0.009-5.101c-1.667-1.41-4.373-1.41-6.044-0.007
			c-1.273,1.071-3.396,2.348-6.278,2.348c-4.524,0-8.366-3.188-9.751-7.603h24.334c2.362,0,4.275-1.614,4.275-3.605
			C233.933,51.037,225.473,42.772,215.075,42.772z M215.075,49.984c4.524,0,8.365,3.19,9.751,7.604h-19.502
			C206.708,53.175,210.551,49.984,215.075,49.984z"/>
		<path fill="#FFFFFF" d="M347.431,42.772c-10.398,0-18.856,8.265-18.856,18.422c0,10.156,8.458,18.416,18.856,18.416
			c4.529,0,8.901-1.58,12.314-4.448c1.672-1.406,1.676-3.689,0.008-5.101c-1.667-1.41-4.373-1.41-6.044-0.007
			c-1.273,1.071-3.396,2.348-6.279,2.348c-4.523,0-8.366-3.188-9.751-7.603h24.335c2.362,0,4.275-1.614,4.275-3.605
			C366.29,51.037,357.83,42.772,347.431,42.772z M347.431,49.984c4.525,0,8.366,3.19,9.751,7.604H337.68
			C339.065,53.175,342.908,49.984,347.431,49.984z"/>
		<path fill="#FFFFFF" d="M113.859,42.744c-4.706,0-8.955,1.69-11.991,4.395c-3.037-2.704-7.287-4.395-11.993-4.395
			c-2.695,0-5.234,0.563-7.488,1.544c-0.55-1.671-2.346-2.904-4.504-2.904c-2.591,0-4.69,1.771-4.69,3.958v30.313
			c0,2.188,2.099,3.956,4.69,3.956c2.592,0,4.694-1.769,4.694-3.956V57.09c0-3.546,3.273-6.432,7.299-6.432s7.3,2.886,7.3,6.432
			v18.564c0,2.188,2.101,3.956,4.693,3.956c2.59,0,4.692-1.769,4.692-3.956V57.09c0-3.546,3.274-6.432,7.299-6.432
			c4.026,0,7.299,2.886,7.299,6.432v18.564c0,2.188,2.102,3.956,4.692,3.956c2.593,0,4.693-1.769,4.693-3.956V57.09
			C130.542,49.179,123.057,42.744,113.859,42.744z"/>
		<path fill="#FFFFFF" d="M302.51,42.744c-4.706,0-8.956,1.69-11.991,4.395c-3.038-2.704-7.285-4.395-11.993-4.395
			c-2.694,0-5.233,0.563-7.488,1.544c-0.55-1.671-2.347-2.904-4.502-2.904c-2.593,0-4.692,1.771-4.692,3.958v30.313
			c0,2.188,2.099,3.956,4.692,3.956c2.589,0,4.691-1.769,4.691-3.956V57.09c0-3.546,3.273-6.432,7.298-6.432
			c4.026,0,7.3,2.886,7.3,6.432v18.564c0,2.188,2.1,3.956,4.693,3.956c2.59,0,4.691-1.769,4.691-3.956V57.09
			c0-3.546,3.273-6.432,7.299-6.432c4.025,0,7.301,2.886,7.301,6.432v18.564c0,2.188,2.099,3.956,4.69,3.956
			s4.692-1.769,4.692-3.956V57.09C319.193,49.179,311.707,42.744,302.51,42.744z"/>
		<ellipse fill="#FFFFFF" cx="144.615" cy="28.921" rx="4.575" ry="3.857"/>
		<ellipse fill="#FFFFFF" cx="182.144" cy="28.921" rx="4.574" ry="3.857"/>
		<ellipse fill="#FFFFFF" cx="247.887" cy="75.755" rx="4.572" ry="3.855"/>
		<path fill="#FFFFFF" d="M52.383,49.708c1.215,0.534,2.072,1.376,2.417,2.37c0.693,1.994,3.189,3.101,5.565,2.454
			c2.38-0.642,3.751-2.778,3.057-4.771c-1.014-2.927-3.404-5.346-6.735-6.81c-6.699-2.931-15.299-0.984-19.18,4.338
			c-1.889,2.591-2.431,5.606-1.534,8.489c0.937,3.013,3.425,5.596,6.829,7.087l0.395,0.176l9.393,2.236
			c1.076,0.553,1.819,1.356,2.112,2.289c0.188,0.604,0.263,1.534-0.458,2.522c-1.379,1.891-4.71,2.549-7.265,1.429
			c-1.214-0.532-2.074-1.372-2.418-2.366c-0.691-1.997-3.185-3.101-5.563-2.456c-2.382,0.64-3.751,2.777-3.058,4.771
			c1.015,2.931,3.405,5.347,6.732,6.809c2.561,1.12,5.4,1.527,8.149,1.308c4.438-0.358,8.637-2.354,11.031-5.644
			c1.89-2.593,2.435-5.608,1.535-8.491c-0.938-3.013-3.428-5.596-6.828-7.088l-0.396-0.17l-9.389-2.236
			c-1.078-0.556-1.823-1.36-2.112-2.294c-0.19-0.603-0.263-1.533,0.458-2.521C46.498,49.248,49.828,48.594,52.383,49.708z"/>
	</g>
</g>
</svg>
