<?xml version="1.0" encoding="utf-8"?>
<!-- Generator: Adobe Illustrator 16.0.3, SVG Export Plug-In . SVG Version: 6.00 Build 0)  -->
<!DOCTYPE svg PUBLIC "-//W3C//DTD SVG 1.1 Tiny//EN" "http://www.w3.org/Graphics/SVG/1.1/DTD/svg11-tiny.dtd">
<svg version="1.1" baseProfile="tiny" id="Layer_1" xmlns="http://www.w3.org/2000/svg" xmlns:xlink="http://www.w3.org/1999/xlink"
	 x="0px" y="0px" width="120.255px" height="97.974px" viewBox="0 0 120.255 97.974" xml:space="preserve">
<g>
	<g>
		<g>
			<path d="M120.199,49.98c-0.737,9.006-8.631,15.708-17.64,14.977c-9.003-0.747-15.711-8.644-14.967-17.64
				c0.737-9.003,8.631-15.711,17.634-14.974C114.229,33.082,120.938,40.975,120.199,49.98z"/>
			<path d="M32.662,43.827c-0.738,9.003-8.637,15.714-17.646,14.977c-9.003-0.74-15.691-8.637-14.961-17.64
				C0.793,32.161,8.68,25.456,17.676,26.19C26.691,26.929,33.394,34.828,32.662,43.827z"/>
			<g>
				<g>
					<path fill="#FFFFFF" d="M103.871,52.383c-1.873,24.19-23.005,42.29-47.195,40.418c-24.203-1.869-42.303-23.008-40.424-47.205
						C18.13,21.399,39.256,3.303,63.453,5.181C87.649,7.051,105.737,28.187,103.871,52.383z"/>
					<path d="M60.111,97.974c-1.267,0-2.547-0.044-3.826-0.151c-13.044-1.009-24.922-7.029-33.439-16.972
						c-8.511-9.936-12.628-22.602-11.619-35.64C13.288,18.594,36.741-1.943,63.844,0.146C76.888,1.155,88.76,7.195,97.271,17.131
						c8.498,9.937,12.628,22.596,11.619,35.64C106.929,78.114,85.5,97.974,60.111,97.974z M60.011,10.089
						c-20.155,0-37.171,15.768-38.734,35.897c-0.808,10.358,2.471,20.414,9.235,28.308c6.759,7.894,16.19,12.675,26.542,13.479
						c21.511,1.705,40.147-14.637,41.793-35.775c0.8-10.367-2.484-20.417-9.243-28.311c-6.752-7.893-16.184-12.681-26.535-13.484
						C62.041,10.121,61.025,10.089,60.011,10.089z"/>
				</g>
				<g>
					<path fill="#FFFFFF" d="M37.447,34.384c-0.189,2.389-2.258,4.167-4.652,3.987c-2.384-0.189-4.162-2.264-3.979-4.656
						c0.176-2.386,2.257-4.164,4.652-3.98C35.852,29.907,37.637,32.004,37.447,34.384z"/>
					<path d="M33.141,40.058c-0.157,0-0.321,0-0.473-0.01c-1.607-0.126-3.058-0.87-4.104-2.087c-1.041-1.22-1.545-2.771-1.426-4.378
						c0.246-3.26,3.178-5.807,6.443-5.532c1.607,0.126,3.07,0.863,4.117,2.093c1.047,1.217,1.545,2.774,1.412,4.369
						C38.878,37.621,36.249,40.058,33.141,40.058z M33.312,31.404c-1.576,0-2.718,1.072-2.818,2.438
						c-0.05,0.712,0.164,1.399,0.624,1.932c0.461,0.542,1.104,0.867,1.81,0.921l0.214,0.006c1.381,0,2.522-1.056,2.623-2.446
						c0.057-0.712-0.157-1.393-0.624-1.932c-0.46-0.533-1.097-0.861-1.81-0.918C33.33,31.404,33.317,31.404,33.312,31.404z"/>
				</g>
				<g>
					<path fill="#FFFFFF" d="M92.996,38.718c-0.189,2.396-2.258,4.171-4.646,3.987c-2.396-0.188-4.168-2.267-3.984-4.655
						c0.183-2.387,2.264-4.174,4.652-3.984C91.407,34.245,93.186,36.338,92.996,38.718z"/>
					<path d="M88.689,44.398c-0.157,0-0.309-0.004-0.466-0.02c-3.31-0.262-5.781-3.155-5.529-6.462
						c0.239-3.259,3.096-5.781,6.449-5.529c1.602,0.126,3.058,0.857,4.104,2.084c1.047,1.22,1.551,2.777,1.425,4.379
						C94.421,41.965,91.798,44.398,88.689,44.398z M88.866,35.742c-1.576,0-2.724,1.068-2.824,2.427
						c-0.113,1.47,0.983,2.749,2.44,2.862l0.207,0.007c1.368,0,2.522-1.078,2.636-2.449c0.057-0.716-0.177-1.399-0.624-1.933
						c-0.467-0.539-1.104-0.863-1.816-0.914H88.866z"/>
				</g>
				<path d="M60.496,55.438c-0.239,0-0.492-0.01-0.737-0.025c-2.9-0.195-5.555-1.514-7.471-3.707
					c-1.917-2.194-2.869-5.003-2.667-7.899l3.348,0.227c-0.139,2.005,0.529,3.946,1.854,5.466c1.317,1.514,3.158,2.425,5.163,2.561
					c4.148,0.296,7.755-2.863,8.032-7.011l3.354,0.227C70.98,51.021,66.177,55.438,60.496,55.438z"/>
			</g>
		</g>
	</g>
</g>
</svg>
